<svg xmlns="http://www.w3.org/2000/svg" viewBox="0 0 900 470" width="900" height="470" role="img" font-family="ui-monospace, SFMono-Regular, Menlo, Consolas, 'DejaVu Sans Mono', monospace">
<title>The guard ladder</title>
<defs>
<marker id="a0" viewBox="0 0 8 8" refX="7" refY="4" markerWidth="6" markerHeight="6" orient="auto-start-reverse"><path d="M 0 0 L 8 4 L 0 8 z" fill="#00e5ff"/></marker>
<marker id="a1" viewBox="0 0 8 8" refX="7" refY="4" markerWidth="6" markerHeight="6" orient="auto-start-reverse"><path d="M 0 0 L 8 4 L 0 8 z" fill="#39d36f"/></marker>
<marker id="a2" viewBox="0 0 8 8" refX="7" refY="4" markerWidth="6" markerHeight="6" orient="auto-start-reverse"><path d="M 0 0 L 8 4 L 0 8 z" fill="#7d8698"/></marker>
<marker id="a3" viewBox="0 0 8 8" refX="7" refY="4" markerWidth="6" markerHeight="6" orient="auto-start-reverse"><path d="M 0 0 L 8 4 L 0 8 z" fill="#e63946"/></marker>
<marker id="a4" viewBox="0 0 8 8" refX="7" refY="4" markerWidth="6" markerHeight="6" orient="auto-start-reverse"><path d="M 0 0 L 8 4 L 0 8 z" fill="#ffb347"/></marker>
</defs>
<style>
svg{background:#0a0c12}
@media (prefers-reduced-motion: reduce){.tok{display:none}}
</style>
<rect width="900" height="470" fill="#0a0c12"/>
<g class="sk">
<text x="24" y="28" fill="#e4e8f2" font-size="13" font-weight="700">THE GUARD LADDER</text>
<polyline points="126,190 155,190" fill="none" stroke="#00e5ff" stroke-width="1.4" marker-end="url(#a0)"/>
<polyline points="315,190 335,190" fill="none" stroke="#39d36f" stroke-width="1.4" marker-end="url(#a1)"/>
<text x="325" y="153" fill="#39d36f" font-size="8.5" text-anchor="middle">HAS_TEETH</text>
<polyline points="235,164 235,101" fill="none" stroke="#e63946" stroke-width="1.4" marker-end="url(#a3)"/>
<text x="248" y="132" fill="#e63946" font-size="8.5" text-anchor="start">VACUOUS / OVERBROAD</text>
<polyline points="495,190 515,190" fill="none" stroke="#7d8698" stroke-width="1.4" marker-end="url(#a2)"/>
<polyline points="675,190 695,190" fill="none" stroke="#7d8698" stroke-width="1.4" marker-end="url(#a2)"/>
<polyline points="775,216 775,260 235,260 235,304" fill="none" stroke="#7d8698" stroke-width="1.4" marker-end="url(#a2)"/>
<polyline points="315,330 335,330" fill="none" stroke="#7d8698" stroke-width="1.4" marker-end="url(#a2)"/>
<polyline points="495,330 515,330" fill="none" stroke="#7d8698" stroke-width="1.4" marker-end="url(#a2)"/>
<polyline points="675,330 695,330" fill="none" stroke="#7d8698" stroke-width="1.4" marker-end="url(#a2)"/>
<polyline points="595,356 595,409" fill="none" stroke="#ffb347" stroke-width="1.4" marker-end="url(#a4)"/>
<text x="608" y="387" fill="#ffb347" font-size="8.5" text-anchor="start">dry-run: wiring only</text>
<polyline points="775,356 775,412" fill="none" stroke="#39d36f" stroke-width="1.4" marker-end="url(#a1)"/>
<rect x="14.0" y="170.0" width="112" height="40" rx="20.0" fill="#111622" stroke="#00e5ff" stroke-width="1.4"/>
<text x="70" y="193.5" fill="#00e5ff" font-size="10.5" font-weight="700" text-anchor="middle">run_guards.sh</text>
<rect x="155.0" y="164.0" width="160" height="52" rx="7" fill="#111622" stroke="#39d36f" stroke-width="1.4"/>
<text x="235" y="187.0" fill="#39d36f" font-size="10.5" font-weight="700" text-anchor="middle">1. teeth_prover</text>
<text x="235" y="200.0" fill="#8b94a9" font-size="8.6" text-anchor="middle">plant defects, expect red</text>
<rect x="335.0" y="164.0" width="160" height="52" rx="7" fill="#111622" stroke="#7d8698" stroke-width="1.4"/>
<text x="415" y="180.5" fill="#7d8698" font-size="10.5" font-weight="700" text-anchor="middle">2. surface agreement</text>
<text x="415" y="193.5" fill="#8b94a9" font-size="8.6" text-anchor="middle">one vocabulary,</text>
<text x="415" y="206.5" fill="#8b94a9" font-size="8.6" text-anchor="middle">counts match the suite</text>
<rect x="515.0" y="164.0" width="160" height="52" rx="7" fill="#111622" stroke="#7d8698" stroke-width="1.4"/>
<text x="595" y="180.5" fill="#7d8698" font-size="10.5" font-weight="700" text-anchor="middle">3. unit gates</text>
<text x="595" y="193.5" fill="#8b94a9" font-size="8.6" text-anchor="middle">hermetic; count</text>
<text x="595" y="206.5" fill="#8b94a9" font-size="8.6" text-anchor="middle">emitted by the runner</text>
<rect x="695.0" y="164.0" width="160" height="52" rx="7" fill="#111622" stroke="#7d8698" stroke-width="1.4"/>
<text x="775" y="193.5" fill="#7d8698" font-size="10.5" font-weight="700" text-anchor="middle">4. guard self-tests</text>
<rect x="155.0" y="304.0" width="160" height="52" rx="7" fill="#111622" stroke="#7d8698" stroke-width="1.4"/>
<text x="235" y="333.5" fill="#7d8698" font-size="10.5" font-weight="700" text-anchor="middle">5. negative control</text>
<rect x="335.0" y="304.0" width="160" height="52" rx="7" fill="#111622" stroke="#7d8698" stroke-width="1.4"/>
<text x="415" y="333.5" fill="#7d8698" font-size="10.5" font-weight="700" text-anchor="middle">6. public-byte scrub</text>
<rect x="515.0" y="304.0" width="160" height="52" rx="7" fill="#111622" stroke="#7d8698" stroke-width="1.4"/>
<text x="595" y="333.5" fill="#7d8698" font-size="10.5" font-weight="700" text-anchor="middle">7. leg liveness</text>
<rect x="695.0" y="304.0" width="160" height="52" rx="7" fill="#111622" stroke="#7d8698" stroke-width="1.4"/>
<text x="775" y="333.5" fill="#7d8698" font-size="10.5" font-weight="700" text-anchor="middle">8. repo shape</text>
<rect x="117.0" y="43.0" width="236" height="58" rx="7" fill="#111622" stroke="#e63946" stroke-width="1.4"/>
<text x="235" y="62.5" fill="#e63946" font-size="10.5" font-weight="700" text-anchor="middle">STOP</text>
<text x="235" y="75.5" fill="#8b94a9" font-size="8.6" text-anchor="middle">a guard that cannot fail</text>
<text x="235" y="88.5" fill="#8b94a9" font-size="8.6" text-anchor="middle">certifies nothing below it</text>
<rect x="477.0" y="409.0" width="236" height="46" rx="23.0" fill="#111622" stroke="#ffb347" stroke-width="1.4"/>
<text x="595" y="429.0" fill="#ffb347" font-size="10.5" font-weight="700" text-anchor="middle">2 UNMEASURED</text>
<text x="595" y="442.0" fill="#8b94a9" font-size="8.6" text-anchor="middle">louder than a violation</text>
<rect x="719.0" y="412.0" width="112" height="40" rx="20.0" fill="#111622" stroke="#39d36f" stroke-width="1.4"/>
<text x="775" y="435.5" fill="#39d36f" font-size="10.5" font-weight="700" text-anchor="middle">result</text>
<circle cx="520" cy="66" r="3.2" fill="#ff5c7a"/>
<text x="529" y="69" fill="#ff5c7a" font-size="8.5">STOP</text>
<text x="612" y="69" fill="#8b94a9" font-size="8">rung 1 found a guard that cannot fail</text>
<circle cx="520" cy="83" r="3.2" fill="#ffb347"/>
<text x="529" y="86" fill="#ffb347" font-size="8.5">UNMEASURED</text>
<text x="612" y="86" fill="#8b94a9" font-size="8">rung 7 ran wiring only, nothing was tested</text>
<circle cx="520" cy="100" r="3.2" fill="#39d36f"/>
<text x="529" y="103" fill="#39d36f" font-size="8.5">result</text>
<text x="612" y="103" fill="#8b94a9" font-size="8">all eight rungs held</text>
</g>
<g opacity="0"><animate attributeName="opacity" values="0;1;0;0" keyTimes="0;0.00000;0.20930;1" dur="21.5s" calcMode="discrete" repeatCount="indefinite"/>
<circle r="5" fill="#e63946" class="tok"><animateMotion dur="4.5s" repeatCount="indefinite" path="M 126 190 L 155 190 L 235 164 L 235 101" keyPoints="0;1" keyTimes="0;1" calcMode="linear"/></circle>
<text x="24" y="454" fill="#e63946" font-size="8.5">showing: rung 1 VACUOUS / OVERBROAD → STOP · nothing below it is certified</text>
</g>
<g opacity="0"><animate attributeName="opacity" values="0;1;0;0" keyTimes="0;0.20930;0.62791;1" dur="21.5s" calcMode="discrete" repeatCount="indefinite"/>
<circle r="5" fill="#39d36f" class="tok"><animateMotion dur="9s" repeatCount="indefinite" path="M 126 190 L 155 190 L 315 190 L 335 190 L 495 190 L 515 190 L 675 190 L 695 190 L 775 216 L 775 260 L 235 260 L 235 304 L 315 330 L 335 330 L 495 330 L 515 330 L 675 330 L 695 330 L 775 356 L 775 412" keyPoints="0;1" keyTimes="0;1" calcMode="linear"/></circle>
<text x="24" y="454" fill="#39d36f" font-size="8.5">showing: HAS_TEETH → rungs 2-8 hold → result</text>
</g>
<g opacity="0"><animate attributeName="opacity" values="0;1;0;0" keyTimes="0;0.62791;1.00000;1" dur="21.5s" calcMode="discrete" repeatCount="indefinite"/>
<circle r="5" fill="#ffb347" class="tok"><animateMotion dur="8s" repeatCount="indefinite" path="M 126 190 L 155 190 L 315 190 L 335 190 L 495 190 L 515 190 L 675 190 L 695 190 L 775 216 L 775 260 L 235 260 L 235 304 L 315 330 L 335 330 L 495 330 L 515 330 L 595 356 L 595 409" keyPoints="0;1" keyTimes="0;1" calcMode="linear"/></circle>
<text x="24" y="454" fill="#ffb347" font-size="8.5">showing: dry run at rung 7 → 2 UNMEASURED · louder than a violation</text>
</g>
</svg>